<?xml version="1.0" encoding="UTF-8" standalone="no"?>
<svg
   xmlns:dc="http://purl.org/dc/elements/1.1/"
   xmlns:cc="http://creativecommons.org/ns#"
   xmlns:rdf="http://www.w3.org/1999/02/22-rdf-syntax-ns#"
   xmlns:svg="http://www.w3.org/2000/svg"
   xmlns="http://www.w3.org/2000/svg"
   xmlns:sodipodi="http://sodipodi.sourceforge.net/DTD/sodipodi-0.dtd"
   xmlns:inkscape="http://www.inkscape.org/namespaces/inkscape"
   version="1.0"
   width="600"
   height="600.00006"
   id="s1"
   sodipodi:docname="logoBQ1.svg"
   inkscape:version="0.92.4 (5da689c313, 2019-01-14)">
  <title
     id="title814">FORCE4Q Logo</title>
  <metadata
     id="metadata9">
    <rdf:RDF>
      <cc:Work
         rdf:about="">
        <dc:format>image/svg+xml</dc:format>
        <dc:type
           rdf:resource="http://purl.org/dc/dcmitype/StillImage" />
        <dc:title>FORCE4Q Logo</dc:title>
        <cc:license
           rdf:resource="http://creativecommons.org/publicdomain/zero/1.0/" />
        <dc:creator>
          <cc:Agent>
            <dc:title>Benjamin Jakimow</dc:title>
          </cc:Agent>
        </dc:creator>
        <dc:date>2020-06-02</dc:date>
      </cc:Work>
      <cc:License
         rdf:about="http://creativecommons.org/publicdomain/zero/1.0/">
        <cc:permits
           rdf:resource="http://creativecommons.org/ns#Reproduction" />
        <cc:permits
           rdf:resource="http://creativecommons.org/ns#Distribution" />
        <cc:permits
           rdf:resource="http://creativecommons.org/ns#DerivativeWorks" />
      </cc:License>
    </rdf:RDF>
  </metadata>
  <defs
     id="defs7" />
  <sodipodi:namedview
     pagecolor="#ffffff"
     bordercolor="#666666"
     borderopacity="1"
     objecttolerance="10"
     gridtolerance="10"
     guidetolerance="10"
     inkscape:pageopacity="0"
     inkscape:pageshadow="2"
     inkscape:window-width="1920"
     inkscape:window-height="1001"
     id="namedview5"
     showgrid="false"
     inkscape:zoom="0.78666659"
     inkscape:cx="-215.07277"
     inkscape:cy="239.51228"
     inkscape:window-x="-9"
     inkscape:window-y="-9"
     inkscape:window-maximized="1"
     inkscape:current-layer="l1" />
  <g
     transform="translate(-187.14286,-110.93358)"
     id="l1">
    <path
       d="m 487.14284,110.93359 c -165.59998,0 -299.99998,134.40004 -299.99998,300.00004 0,165.6 134.39998,300.00004 299.99998,300 165.6,0 300.00002,-134.39996 300.00002,-300 0,-165.60002 -134.40002,-300.00004 -300.00002,-300.00004 z m -14.15816,24.87248 c 0.1688,-0.009 0.34134,0.008 0.5102,0 l 1.27552,20.34438 c -17.30332,0.82496 -34.14468,3.34834 -50.38266,7.46174 l 5.03828,19.8342 c -42.62194,10.79592 -80.5854,33.2414 -110.33164,63.7755 l -14.6046,-14.2857 c -11.87822,12.18596 -22.49774,25.57174 -31.76018,39.92346 l -17.09184,-11.28828 c 46.68098,-72.1773 126.19538,-121.13988 217.34692,-125.7653 z m 27.80612,0 c 91.36348,4.46928 171.08974,53.45432 217.85716,125.7653 l -17.09184,11.28828 c -9.24162,-14.31558 -19.85138,-27.69924 -31.69644,-39.8597 l -14.60458,14.22194 c -29.75088,-30.5504 -67.7586,-52.97584 -110.3954,-63.7755 l 5.03826,-19.8342 c -16.23798,-4.1134 -33.07932,-6.63678 -50.38266,-7.46174 z m -258.801,149.36226 18.36734,9.05612 c -7.74674,15.01834 -14.08054,30.87462 -18.75,47.44896 l 19.64286,5.54848 c -5.71048,20.26526 -8.80102,41.62812 -8.80102,63.71174 0,22.10504 3.07982,43.49278 8.80102,63.7755 l -19.64286,5.54848 c 4.66624,16.54766 11.01278,32.38996 18.75,47.3852 l -18.36734,9.05612 c -19.39818,-37.71134 -30.35714,-80.46448 -30.35714,-125.7653 0,-45.30084 10.95896,-88.05396 30.35714,-125.7653 z m 490.30612,0 c 19.39818,37.71134 30.3571,80.46446 30.3571,125.7653 0,45.30082 -10.95892,88.05396 -30.3571,125.7653 l -18.36736,-9.05612 c 7.7405,-14.9997 14.08224,-30.83214 18.75002,-47.3852 l -19.64286,-5.54848 c 5.72118,-20.28272 8.80102,-41.67046 8.80102,-63.7755 0,-22.08362 -3.09052,-43.44648 -8.80102,-63.71174 l 19.64286,-5.54848 c -4.66816,-16.5697 -11.00646,-32.43422 -18.75002,-47.44896 z M 272.7296,549.00763 c 9.26598,14.35144 19.88144,27.73692 31.76018,39.92346 l 14.6046,-14.28572 c 29.74624,30.53408 67.7097,52.9796 110.33164,63.77552 l -5.03828,19.83416 c 16.23798,4.11338 33.07934,6.6368 50.38266,7.46176 l -1.27552,20.34438 C 382.13144,681.59187 302.40516,632.60683 255.63776,560.29589 Z m 428.8903,0 17.02806,11.28826 C 671.88054,632.60683 592.15428,681.59187 500.7908,686.06119 l -1.2755,-20.34438 c 17.30334,-0.82496 34.14468,-3.34838 50.38266,-7.46176 l -5.03826,-19.83416 c 42.6368,-10.7997 80.64452,-33.22514 110.3954,-63.77552 l 14.60458,14.22194 c 11.85988,-12.17568 22.5073,-25.52476 31.76022,-39.85968 z"
       style="display:inline;opacity:1;fill:#214b7e;fill-opacity:1;stroke:none;stroke-width:3;stroke-miterlimit:4;stroke-dasharray:none;stroke-dashoffset:1.79999995;stroke-opacity:1"
       id="p1"
       inkscape:connector-curvature="0"
       sodipodi:nodetypes="ssssscccccccccccccccccccccccsccccsccsccccscccccccccccccccccccccc" />
    <path
       inkscape:connector-curvature="0"
       style="fill:#214b7e;stroke:#ffffff;stroke-width:18.39214325;fill-opacity:1;stroke-opacity:1"
       d="m 471.65668,217.81611 -14.7689,41.08804 0.22071,2.39098 7.17293,35.68077 -41.56624,17.17825 -20.1394,-30.27346 -1.54493,-1.80243 -39.50634,-18.64964 -21.88664,21.88665 18.64962,39.50633 1.80243,1.54494 30.27348,20.15778 -17.19666,41.52946 -35.68076,-7.17293 -2.39098,-0.18393 -41.06965,14.75051 v 30.97236 l 41.08805,14.7689 2.39098,-0.22071 35.68075,-7.17293 17.17827,41.56624 -30.27348,20.1394 -1.80243,1.54493 -18.64962,39.50633 21.88664,21.88665 39.50634,-18.64963 1.54493,-1.80243 20.15779,-30.27347 41.52946,17.19666 -7.17293,35.68075 -0.18393,2.39098 14.75051,41.06965 h 30.97236 l 14.76889,-41.08804 -0.2207,-2.39098 -7.17293,-35.68075 41.56624,-17.17827 20.1394,30.27347 1.54494,1.80243 39.50633,18.64963 21.88665,-21.88665 -18.64964,-39.50633 -1.80243,-1.54493 -30.27346,-20.15779 17.19665,-41.52946 35.68076,7.17293 2.39098,0.18393 41.06965,-14.75051 v -30.97236 l -41.08804,-14.76889 -2.39098,0.2207 -35.68077,7.17294 -17.17825,-41.56624 30.27346,-20.1394 1.80243,-1.54494 18.64964,-39.50633 -21.88665,-21.88665 -39.50634,18.64964 -1.54494,1.80243 -20.15778,30.27346 -41.52947,-17.19665 7.17294,-35.68076 0.18392,-2.39098 -14.7505,-41.06965 z m 15.48617,147.13714 a 45.980359,45.980359 0 0 1 45.98037,45.98037 45.980359,45.980359 0 0 1 -45.98037,45.98035 45.980359,45.980359 0 0 1 -45.98035,-45.98035 45.980359,45.980359 0 0 1 45.98035,-45.98037 z"
       id="path2" />
  </g>
</svg>
